<?xml version="1.0" encoding="UTF-8" standalone="no"?><!DOCTYPE svg PUBLIC "-//W3C//DTD SVG 1.1//EN" "http://www.w3.org/Graphics/SVG/1.1/DTD/svg11.dtd"><svg width="100%" height="100%" viewBox="0 0 120 120" version="1.1" xmlns="http://www.w3.org/2000/svg" xmlns:xlink="http://www.w3.org/1999/xlink" xml:space="preserve" style="fill-rule:evenodd;clip-rule:evenodd;stroke-linejoin:round;stroke-miterlimit:1.41421;"><path id="path566" d="M55.085,5.558c0,0 -10.483,33.346 -11.516,36.634c-3.346,0 -37.268,0 -37.268,0c-2.248,0 -4.226,1.484 -4.921,3.693c0,0.011 -0.222,1.244 -0.222,1.244l-0.043,0.238l0.011,0.17c0,1.653 0.76,3.21 2.02,4.219c0.755,0.59 4.899,3.702 30.263,22.747c-1.034,3.288 -11.578,36.83 -11.578,36.83l-0.192,1.247l0,0.207c0,1.705 0.795,3.321 2.131,4.325c1.818,1.365 4.261,1.365 6.081,0.003c0.006,-0.003 27.777,-20.857 30.154,-22.644c2.706,2.036 30.152,22.641 30.152,22.641c1.82,1.365 4.263,1.365 6.081,0.003c1.336,-1.004 2.134,-2.623 2.134,-4.328l0,-0.207l-0.192,-1.247c0,0 -10.542,-33.542 -11.578,-36.83c2.708,-2.035 30.151,-22.641 30.151,-22.641c1.337,-1.003 2.132,-2.622 2.132,-4.325l0,-0.204l-0.189,-1.25l-0.063,-0.198c-0.695,-2.209 -2.672,-3.693 -4.917,-3.693c0,0 -33.925,0 -37.269,0c-1.039,-3.294 -11.521,-36.634 -11.521,-36.634c-0.695,-2.212 -2.67,-3.694 -4.918,-3.694c-2.248,0 -4.228,1.482 -4.923,3.694Z" style="fill:#f0a000;fill-rule:nonzero;"/><path id="path583" d="M57.147,8.656l-10.991,34.965c-0.261,0.825 -1.002,1.382 -1.841,1.382l-35.571,0c-1.283,0 -2.409,0.841 -2.827,2.09c-0.036,0.208 -0.09,0.507 -0.176,0.979c0,0.011 0,0.035 0,0.035c0,0.942 0.439,1.854 1.178,2.444c0.699,0.547 4.996,3.773 28.837,21.674c0.511,0.387 0.798,0.992 0.798,1.62c0,0.205 -0.031,0.413 -0.096,0.616c0,0 -10.911,34.707 -11.004,35.003c-0.031,0.197 -0.106,0.678 -0.134,0.878c0,0.013 0,0.042 0,0.042c0,0.99 0.462,1.93 1.237,2.509c1.056,0.792 2.473,0.792 3.529,0l28.778,-21.61c0.679,-0.507 1.598,-0.507 2.275,0l28.778,21.61c1.053,0.792 2.47,0.792 3.526,0c0.775,-0.582 1.237,-1.519 1.237,-2.509c0,0 0,-0.029 0,-0.042c-0.031,-0.198 -0.106,-0.681 -0.137,-0.878c-0.093,-0.296 -11.004,-35.003 -11.004,-35.003c-0.064,-0.203 -0.095,-0.411 -0.095,-0.616c0,-0.628 0.286,-1.236 0.8,-1.62l28.778,-21.61c0.777,-0.582 1.237,-1.521 1.237,-2.508c0,0 0,-0.027 0,-0.04c-0.031,-0.2 -0.104,-0.681 -0.135,-0.881c-0.005,-0.013 -0.012,-0.04 -0.012,-0.04c-0.403,-1.281 -1.552,-2.143 -2.853,-2.143l-35.566,0c-0.839,0 -1.583,-0.557 -1.844,-1.382l-10.991,-34.965c-0.403,-1.281 -1.552,-2.143 -2.853,-2.143c-1.306,-0.003 -2.453,0.859 -2.858,2.143Z" style="fill-rule:nonzero;"/><path id="path600" d="M49.835,48.753c-0.271,0.864 -1.053,1.451 -1.934,1.451c0,0 -24.066,0 -32.901,0c7.147,5.367 26.617,19.987 26.617,19.987c0.537,0.403 0.839,1.044 0.839,1.703c0,0.216 -0.034,0.435 -0.101,0.648c0,0 -7.436,23.657 -10.167,32.34c7.149,-5.369 26.617,-19.987 26.617,-19.987c0.712,-0.534 1.678,-0.534 2.39,0c0,0 19.471,14.621 26.617,19.987c-2.731,-8.683 -10.167,-32.34 -10.167,-32.34c-0.067,-0.213 -0.098,-0.432 -0.098,-0.648c0,-0.659 0.299,-1.297 0.836,-1.703c0,0 19.47,-14.62 26.62,-19.987c-8.836,0 -32.902,0 -32.902,0c-0.88,0 -1.662,-0.587 -1.933,-1.451c0,0 -7.436,-23.657 -10.168,-32.343c-2.726,8.689 -10.165,32.343 -10.165,32.343l0,0Z" style="fill:#ef2300;fill-rule:nonzero;"/></svg>