<?xml version="1.0" encoding="UTF-8" standalone="no"?>
<svg width="230px" height="175px" viewBox="0 0 230 175" version="1.1" xmlns="http://www.w3.org/2000/svg" xmlns:xlink="http://www.w3.org/1999/xlink" xmlns:sketch="http://www.bohemiancoding.com/sketch/ns">
    <!-- Generator: Sketch 3.3 (11970) - http://www.bohemiancoding.com/sketch -->
    <title>Untitled 2</title>
    <desc>Created with Sketch.</desc>
    <defs></defs>
    <g id="Page-1" stroke="none" stroke-width="1" fill="none" fill-rule="evenodd" sketch:type="MSPage">
        <g id="--" sketch:type="MSLayerGroup" fill="#FFFFFF">
            <path d="M5,56.4 L34.4,49 C26,55.2 7.8,69.2 0,79.2 L0.6,80.6 C8.6,77.4 19.4,73.6 28.6,70.2 C24,72.8 11.4,82.4 5,93.2 L5.6,94.8 C14,90.8 29.8,83.4 29.8,83.6 C21.4,91.2 14.4,100 10.6,108.6 L11.2,110.2 L34.6,98.2 C29.6,102.8 23,110 19.6,120.4 L20.4,121.8 L35.4,111.4 C32.4,114.8 28.8,120.8 27.4,125.8 L28.2,127.4 C31.8,125.6 37,123 43.8,120.8 C39.6,123.6 35.8,126 33.6,128.8 L34,130.2 C36,130.4 40.8,130.6 40.8,130.6 L30.4,136.2 C30.4,136.2 41.4,151 58.8,161.2 C78.2,172.8 98.4,174.6 108.4,174.6 C114.2,174.6 119.6,174 121,173.8 C121,173 120,168.6 119,166.2 C120.2,164.4 122.4,157 123.2,152.6 C126.4,136.6 127.6,130.6 142.4,122.8 C145.6,121.2 151.2,117.4 156.8,117.4 C164,117.4 174,121 180.2,122.2 C184.4,123 188,123.6 190.8,123.6 C195.6,123.6 205.6,117 209.8,113.6 C210.2,113.8 212.2,114.2 214.4,114.2 C215.6,114.2 217,114.2 218.2,113.6 C221.8,112 230,91.8 230,89 C230,86.8 228.8,84 228.2,77.6 C227.8,73.8 227.4,65.2 226.8,63.4 C223.8,55.2 206,51.6 185.8,43 C173.8,37.8 167.8,31 167.8,31 C167.8,31 168.4,29 168.4,26.4 C168.4,21 163.6,6.4 146.8,6.4 C139.2,6.4 132.2,8.6 130.2,9.2 C126.4,9.2 105.6,0.2 95.6,0.2 C71.2,0.2 49.2,17.4 32.2,30.8 C19.2,41 9.4,50.2 4.8,54.8 L5,56.4 Z" id="---2" sketch:type="MSShapeGroup"></path>
        </g>
    </g>
</svg>
