<svg width="230" height="175" viewBox="0 0 230 175" xmlns="http://www.w3.org/2000/svg"><title>Untitled 2</title><path d="M5 56.4L34.4 49C26 55.2 7.8 69.2 0 79.2l.6 1.4c8-3.2 18.8-7 28-10.4C24 72.8 11.4 82.4 5 93.2l.6 1.6c8.4-4 24.2-11.4 24.2-11.2-8.4 7.6-15.4 16.4-19.2 25l.6 1.6 23.4-12c-5 4.6-11.6 11.8-15 22.2l.8 1.4 15-10.4c-3 3.4-6.6 9.4-8 14.4l.8 1.6c3.6-1.8 8.8-4.4 15.6-6.6-4.2 2.8-8 5.2-10.2 8l.4 1.4c2 .2 6.8.4 6.8.4l-10.4 5.6s11 14.8 28.4 25c19.4 11.6 39.6 13.4 49.6 13.4 5.8 0 11.2-.6 12.6-.8 0-.8-1-5.2-2-7.6 1.2-1.8 3.4-9.2 4.2-13.6 3.2-16 4.4-22 19.2-29.8 3.2-1.6 8.8-5.4 14.4-5.4 7.2 0 17.2 3.6 23.4 4.8 4.2.8 7.8 1.4 10.6 1.4 4.8 0 14.8-6.6 19-10 .4.2 2.4.6 4.6.6 1.2 0 2.6 0 3.8-.6C221.8 112 230 91.8 230 89c0-2.2-1.2-5-1.8-11.4-.4-3.8-.8-12.4-1.4-14.2-3-8.2-20.8-11.8-41-20.4-12-5.2-18-12-18-12s.6-2 .6-4.6c0-5.4-4.8-20-21.6-20-7.6 0-14.6 2.2-16.6 2.8-3.8 0-24.6-9-34.6-9-24.4 0-46.4 17.2-63.4 30.6-13 10.2-22.8 19.4-27.4 24l.2 1.6z" fill="#FFF" fill-rule="evenodd"/></svg>