<?xml version="1.0" encoding="UTF-8" standalone="no"?>
<svg width="256px" height="195px" viewBox="0 0 256 195" version="1.1" xmlns="http://www.w3.org/2000/svg">
  <path d="M5.5,62.5 L38.2,54.3 C28.9,61.2 8.6,76.8 0,87.9 L0.6,89.4 C9.5,85.9 21.5,81.6 31.8,77.9 C26.7,80.8 12.6,91.4 5.5,103.5 L6.2,105.2 C15.5,100.8 33.1,92.6 33.1,92.8 C23.8,101.2 16.0,111.0 11.7,120.6 L12.4,122.4 L38.5,109.0 C32.9,114.1 25.6,122.2 21.8,133.7 L22.7,135.3 L39.4,123.7 C36.0,127.5 32.0,134.2 30.4,139.7 L31.3,141.5 C35.3,139.5 41.1,136.6 48.7,134.2 C44.0,137.3 39.8,140.0 37.3,143.1 L37.8,144.6 C40.0,144.9 45.4,145.1 45.4,145.1 L33.8,151.3 C33.8,151.3 46.0,167.8 65.4,179.2 C87.0,192.1 109.5,194.1 120.6,194.1 C127.1,194.1 133.1,193.4 134.6,193.2 C134.6,192.3 133.5,187.4 132.4,184.7 C133.7,182.7 136.2,174.5 137.1,169.6 C140.6,151.8 142.0,145.1 158.4,136.4 C162.0,134.6 168.2,130.4 174.5,130.4 C182.5,130.4 193.6,134.4 200.5,135.7 C205.2,136.6 209.2,137.3 212.3,137.3 C217.7,137.3 228.8,130.0 233.5,126.2 C233.9,126.4 236.1,126.8 238.6,126.8 C239.9,126.8 241.5,126.8 242.8,126.2 C246.8,124.4 256,101.9 256,98.8 C256,96.3 254.6,93.2 253.9,86.1 C253.5,81.9 253.1,72.3 252.4,70.3 C249.0,61.2 229.2,57.2 206.8,47.6 C193.4,41.8 186.7,34.2 186.7,34.2 C186.7,34.2 187.4,32.0 187.4,29.1 C187.4,23.1 182.0,6.9 163.3,6.9 C154.9,6.9 147.1,9.3 144.9,10.0 C140.6,10.0 117.5,0 106.4,0 C79.2,0 54.7,19.1 35.8,34.0 C21.3,45.4 10.4,55.6 5.3,60.7 L5.5,62.5 Z"/>
</svg>
