<svg width="256" height="195" viewBox="0 0 256 195" xmlns="http://www.w3.org/2000/svg"><path d="M5.5 62.5l32.7-8.2C28.9 61.2 8.6 76.8 0 87.9l.6 1.5c8.9-3.5 20.9-7.8 31.2-11.5-5.1 2.9-19.2 13.5-26.3 25.6l.7 1.7c9.3-4.4 26.9-12.6 26.9-12.4-9.3 8.4-17.1 18.2-21.4 27.8l.7 1.8L38.5 109c-5.6 5.1-12.9 13.2-16.7 24.7l.9 1.6 16.7-11.6c-3.4 3.8-7.4 10.5-9 16l.9 1.8c4-2 9.8-4.9 17.4-7.3-4.7 3.1-8.9 5.8-11.4 8.9l.5 1.5c2.2.3 7.6.5 7.6.5l-11.6 6.2s12.2 16.5 31.6 27.9c21.6 12.9 44.1 14.9 55.2 14.9 6.5 0 12.5-.7 14-.9 0-.9-1.1-5.8-2.2-8.5 1.3-2 3.8-10.2 4.7-15.1 3.5-17.8 4.9-24.5 21.3-33.2 3.6-1.8 9.8-6 16.1-6 8 0 19.1 4 26 5.3 4.7.9 8.7 1.6 11.8 1.6 5.4 0 16.5-7.3 21.2-11.1.4.2 2.6.6 5.1.6 1.3 0 2.9 0 4.2-.6 4-1.8 13.2-24.3 13.2-27.4 0-2.5-1.4-5.6-2.1-12.7-.4-4.2-.8-13.8-1.5-15.8-3.4-9.1-23.2-13.1-45.6-22.7-13.4-5.8-20.1-13.4-20.1-13.4s.7-2.2.7-5.1c0-6-5.4-22.2-24.1-22.2-8.4 0-16.2 2.4-18.4 3.1-4.3 0-27.4-10-38.5-10-27.2 0-51.7 19.1-70.6 34C21.3 45.4 10.4 55.6 5.3 60.7l.2 1.8z"/></svg>