<svg width="256" height="195" viewBox="0 0 256 195" xmlns="http://www.w3.org/2000/svg"><path d="M5.565 62.553l32.724-8.236C28.94 61.216 8.68 76.8 0 87.93l.668 1.56c8.904-3.563 20.925-7.793 31.165-11.577-5.12 2.894-19.144 13.58-26.268 25.6l.668 1.78c9.35-4.45 26.936-12.688 26.936-12.465-9.35 8.46-17.142 18.254-21.372 27.826l.668 1.78L38.51 109.08c-5.564 5.12-12.91 13.134-16.694 24.71l.89 1.558 16.696-11.576c-3.34 3.785-7.346 10.463-8.905 16.028l.89 1.78c4.008-2.002 9.796-4.896 17.364-7.345-4.673 3.117-8.903 5.788-11.352 8.904l.445 1.56c2.226.22 7.57.444 7.57.444l-11.576 6.234s12.243 16.473 31.61 27.826c21.593 12.91 44.076 14.915 55.207 14.915 6.456 0 12.466-.668 14.024-.89 0-.89-1.113-5.788-2.226-8.46 1.336-2.003 3.785-10.24 4.675-15.137 3.562-17.81 4.897-24.487 21.37-33.17 3.562-1.78 9.795-6.01 16.028-6.01 8.014 0 19.144 4.008 26.045 5.343 4.675.892 8.682 1.56 11.8 1.56 5.34 0 16.472-7.347 21.147-11.13.445.222 2.67.667 5.12.667 1.335 0 2.893 0 4.23-.668C246.872 124.437 256 101.954 256 98.837c0-2.448-1.336-5.565-2.004-12.688-.445-4.23-.89-13.802-1.558-15.806-3.34-9.127-23.15-13.134-45.635-22.706-13.356-5.788-20.034-13.356-20.034-13.356s.666-2.226.666-5.12c0-6.01-5.342-22.26-24.04-22.26-8.46 0-16.252 2.448-18.478 3.115-4.23 0-27.38-10.017-38.51-10.017C79.247 0 54.76 19.144 35.84 34.06 21.37 45.41 10.463 55.65 5.343 60.77l.222 1.78z"/></svg>