<?xml version="1.0" encoding="utf-8"?>
<!-- Generator: Adobe Illustrator 17.0.0, SVG Export Plug-In . SVG Version: 6.00 Build 0)  -->
<!DOCTYPE svg PUBLIC "-//W3C//DTD SVG 1.1//EN" "http://www.w3.org/Graphics/SVG/1.1/DTD/svg11.dtd">
<svg version="1.1" id="Layer_1" xmlns="http://www.w3.org/2000/svg" xmlns:xlink="http://www.w3.org/1999/xlink" x="0px" y="0px"
	 width="216px" height="216px" viewBox="-72 -77.4 216 216" enable-background="new -72 -77.4 216 216" xml:space="preserve">
<g>
	
		<linearGradient id="SVGID_1_" gradientUnits="userSpaceOnUse" x1="-3023.354" y1="64.189" x2="-3023.354" y2="243.4555" gradientTransform="matrix(1 0 0 -1 3060 188.2)">
		<stop  offset="0" style="stop-color:#1C75BC"/>
		<stop  offset="1" style="stop-color:#27AAE1"/>
	</linearGradient>
	<polygon fill="url(#SVGID_1_)" points="87.509,-55.158 87.509,-55.255 87.386,-55.207 87.262,-55.255 87.262,-55.158 
		36.646,-34.923 -13.973,-55.158 -13.973,-55.255 -14.094,-55.207 -14.217,-55.255 -14.217,-55.158 -64.957,-34.875 
		-64.957,124.011 -14.094,104.556 36.522,123.92 36.522,124.011 36.646,123.966 36.766,124.011 36.766,123.92 87.386,104.556 
		138.249,124.011 138.249,-34.875 	"/>
	<g>
		
			<linearGradient id="SVGID_2_" gradientUnits="userSpaceOnUse" x1="-3099.4648" y1="64.189" x2="-3099.4648" y2="243.4555" gradientTransform="matrix(1 0 0 -1 3060 188.2)">
			<stop  offset="0" style="stop-color:#014D92"/>
			<stop  offset="1" style="stop-color:#0B92C8"/>
		</linearGradient>
		<polygon fill="url(#SVGID_2_)" points="-64.957,-34.875 -64.957,124.011 -13.973,104.511 -13.973,-55.255 		"/>
		
			<linearGradient id="SVGID_3_" gradientUnits="userSpaceOnUse" x1="-3048.7253" y1="64.189" x2="-3048.7253" y2="243.4555" gradientTransform="matrix(1 0 0 -1 3060 188.2)">
			<stop  offset="0" style="stop-color:#00549F"/>
			<stop  offset="1" style="stop-color:#00A0DB"/>
		</linearGradient>
		<polygon fill="url(#SVGID_3_)" points="36.766,-34.875 36.766,124.011 -14.217,104.511 -14.217,-55.255 		"/>
		
			<linearGradient id="SVGID_4_" gradientUnits="userSpaceOnUse" x1="-2997.9841" y1="64.189" x2="-2997.9841" y2="243.4555" gradientTransform="matrix(1 0 0 -1 3060 188.2)">
			<stop  offset="0" style="stop-color:#014D92"/>
			<stop  offset="1" style="stop-color:#0B92C8"/>
		</linearGradient>
		<polygon fill="url(#SVGID_4_)" points="36.526,-34.875 36.526,124.011 87.506,104.511 87.506,-55.255 		"/>
		
			<linearGradient id="SVGID_5_" gradientUnits="userSpaceOnUse" x1="-2947.2446" y1="64.189" x2="-2947.2446" y2="243.4555" gradientTransform="matrix(1 0 0 -1 3060 188.2)">
			<stop  offset="0" style="stop-color:#00549F"/>
			<stop  offset="1" style="stop-color:#00A0DB"/>
		</linearGradient>
		<polygon fill="url(#SVGID_5_)" points="138.245,-34.875 138.245,124.011 87.265,104.511 87.265,-55.255 		"/>
	</g>
	<g>
		<g>
			<defs>
				<path id="SVGID_6_" d="M109.505,37.65c-1.784-5.348-1.277-14.474-2.19-15.79c-5.942-8.158-27.62-9.598-37.36-20.342
					c1.712-5.286-1.767-9.675-5.322-13.019c-5.341-3.892-12.765-2.174-18.496-0.617c-6.501-1.378-12.518-3.701-18.844-5.556
					C13.198-19.214-0.776-9.263-0.776-9.263c-10.056,6.388-25.843,19.634-33.396,27.366c1.849,0.266,3.818-1.127,5.904-1.381
					l14.451-3.749c-6.027,4.974-18.695,13.72-22.392,20.66c4.513-1.547,14-6.784,18.698-7.18
					c-4.13,3.642-12.733,10.543-15.449,14.952c0.322,0.159,0.094,0.543,0.143,0.812c3.541-1.949,12.151-7.05,16.044-7.372
					c-4.035,4.182-11.453,12.236-13.106,17.655c3.496-2.284,12.275-6.907,16.108-8.301c-0.887,2.138-2.833,3.714-4.104,5.848
					c-1.758,2.953-5.881,6.296-6.066,9.818c3.07-2.853,6.868-5.354,10.683-7.353c-1.722,3.548-4.854,6.472-5.734,10.702
					c2.508-2.421,7.232-3.658,10.446-4.763l-0.387,0.374c-0.276,0.228-3.912,2.794-6.387,5.666c2.187-0.123,0.559-0.4,3.353,0.24
					l1.514,0.081c-0.754,0.393-1.579,0.828-2.45,1.29l0,0c-1.348,0.715-2.801,1.494-4.269,2.297
					c6.004,7.668,13.461,13.821,22.018,17.993c11.151,5.439,23.305,7.216,35.469,5.829c-0.146-0.715-0.305-1.426-0.491-2.131l0,0
					c0-0.003,0-0.007-0.003-0.013c-0.224-0.861-0.484-1.712-0.79-2.55l0,0c-0.016-0.046-0.029-0.091-0.049-0.136
					c4.162-7.729,1.975-20.972,12.629-26.284c7.17-3.655,7.986-5.669,16.226-4.097c4.451,0.848,14.172,4.208,18.847,3.204
					c4.243-2.352,6.378-3.431,10.043-6.163c4.584,0.832,6.069,0.367,7.755-2.063c-1.527,2.118,2.97-8.291,4.87-12.213L109.505,37.65
					z"/>
			</defs>
			<clipPath id="SVGID_7_">
				<use xlink:href="#SVGID_6_"  overflow="visible"/>
			</clipPath>
			<ellipse clip-path="url(#SVGID_7_)" fill="#FFFFFF" cx="36.506" cy="38.354" rx="94.354" ry="63.995"/>
		</g>
		<g>
			<defs>
				<path id="SVGID_8_" d="M109.505,37.65c-1.784-5.348-1.277-14.474-2.19-15.79c-5.942-8.158-27.62-9.598-37.36-20.342
					c1.712-5.286-1.767-9.675-5.322-13.019c-5.341-3.892-12.765-2.174-18.496-0.617c-6.501-1.378-12.518-3.701-18.844-5.556
					C13.198-19.214-0.776-9.263-0.776-9.263c-10.056,6.388-25.843,19.634-33.396,27.366c1.849,0.266,3.818-1.127,5.904-1.381
					l14.451-3.749c-6.027,4.974-18.695,13.72-22.392,20.66c4.513-1.547,14-6.784,18.698-7.18
					c-4.13,3.642-12.733,10.543-15.449,14.952c0.322,0.159,0.094,0.543,0.143,0.812c3.541-1.949,12.151-7.05,16.044-7.372
					c-4.035,4.182-11.453,12.236-13.106,17.655c3.496-2.284,12.275-6.907,16.108-8.301c-0.887,2.138-2.833,3.714-4.104,5.848
					c-1.758,2.953-5.881,6.296-6.066,9.818c3.07-2.853,6.868-5.354,10.683-7.353c-1.722,3.548-4.854,6.472-5.734,10.702
					c2.508-2.421,7.232-3.658,10.446-4.763l-0.387,0.374c-0.276,0.228-3.912,2.794-6.387,5.666c2.187-0.123,0.559-0.4,3.353,0.24
					l1.514,0.081c-0.754,0.393-1.579,0.828-2.45,1.29l0,0c-1.348,0.715-2.801,1.494-4.269,2.297
					c6.004,7.668,13.461,13.821,22.018,17.993c11.151,5.439,23.305,7.216,35.469,5.829c-0.146-0.715-0.305-1.426-0.491-2.131l0,0
					c0-0.003,0-0.007-0.003-0.013c-0.224-0.861-0.484-1.712-0.79-2.55l0,0c-0.016-0.046-0.029-0.091-0.049-0.136
					c4.162-7.729,1.975-20.972,12.629-26.284c7.17-3.655,7.986-5.669,16.226-4.097c4.451,0.848,14.172,4.208,18.847,3.204
					c4.243-2.352,6.378-3.431,10.043-6.163c4.584,0.832,6.069,0.367,7.755-2.063c-1.527,2.118,2.97-8.291,4.87-12.213L109.505,37.65
					z"/>
			</defs>
			<clipPath id="SVGID_9_">
				<use xlink:href="#SVGID_8_"  overflow="visible"/>
			</clipPath>
			<polygon clip-path="url(#SVGID_9_)" fill="#F1F2F2" points="-63.618,-31.733 -63.618,128.41 -13.158,108.754 -13.158,-52.276 			
				"/>
		</g>
		<g>
			<defs>
				<path id="SVGID_10_" d="M109.505,37.65c-1.784-5.348-1.277-14.474-2.19-15.79c-5.942-8.158-27.62-9.598-37.36-20.342
					c1.712-5.286-1.767-9.675-5.322-13.019c-5.341-3.892-12.765-2.174-18.496-0.617c-6.501-1.378-12.518-3.701-18.844-5.556
					C13.198-19.214-0.776-9.263-0.776-9.263c-10.056,6.388-25.843,19.634-33.396,27.366c1.849,0.266,3.818-1.127,5.904-1.381
					l14.451-3.749c-6.027,4.974-18.695,13.72-22.392,20.66c4.513-1.547,14-6.784,18.698-7.18
					c-4.13,3.642-12.733,10.543-15.449,14.952c0.322,0.159,0.094,0.543,0.143,0.812c3.541-1.949,12.151-7.05,16.044-7.372
					c-4.035,4.182-11.453,12.236-13.106,17.655c3.496-2.284,12.275-6.907,16.108-8.301c-0.887,2.138-2.833,3.714-4.104,5.848
					c-1.758,2.953-5.881,6.296-6.066,9.818c3.07-2.853,6.868-5.354,10.683-7.353c-1.722,3.548-4.854,6.472-5.734,10.702
					c2.508-2.421,7.232-3.658,10.446-4.763l-0.387,0.374c-0.276,0.228-3.912,2.794-6.387,5.666c2.187-0.123,0.559-0.4,3.353,0.24
					l1.514,0.081c-0.754,0.393-1.579,0.828-2.45,1.29l0,0c-1.348,0.715-2.801,1.494-4.269,2.297
					c6.004,7.668,13.461,13.821,22.018,17.993c11.151,5.439,23.305,7.216,35.469,5.829c-0.146-0.715-0.305-1.426-0.491-2.131l0,0
					c0-0.003,0-0.007-0.003-0.013c-0.224-0.861-0.484-1.712-0.79-2.55l0,0c-0.016-0.046-0.029-0.091-0.049-0.136
					c4.162-7.729,1.975-20.972,12.629-26.284c7.17-3.655,7.986-5.669,16.226-4.097c4.451,0.848,14.172,4.208,18.847,3.204
					c4.243-2.352,6.378-3.431,10.043-6.163c4.584,0.832,6.069,0.367,7.755-2.063c-1.527,2.118,2.97-8.291,4.87-12.213L109.505,37.65
					z"/>
			</defs>
			<clipPath id="SVGID_11_">
				<use xlink:href="#SVGID_10_"  overflow="visible"/>
			</clipPath>
			<polygon clip-path="url(#SVGID_11_)" fill="#FFFFFF" points="37.062,-31.733 37.062,128.41 -13.398,108.754 -13.398,-52.276 			
				"/>
		</g>
		<g>
			<defs>
				<path id="SVGID_12_" d="M109.505,37.65c-1.784-5.348-1.277-14.474-2.19-15.79c-5.942-8.158-27.62-9.598-37.36-20.342
					c1.712-5.286-1.767-9.675-5.322-13.019c-5.341-3.892-12.765-2.174-18.496-0.617c-6.501-1.378-12.518-3.701-18.844-5.556
					C13.198-19.214-0.776-9.263-0.776-9.263c-10.056,6.388-25.843,19.634-33.396,27.366c1.849,0.266,3.818-1.127,5.904-1.381
					l14.451-3.749c-6.027,4.974-18.695,13.72-22.392,20.66c4.513-1.547,14-6.784,18.698-7.18
					c-4.13,3.642-12.733,10.543-15.449,14.952c0.322,0.159,0.094,0.543,0.143,0.812c3.541-1.949,12.151-7.05,16.044-7.372
					c-4.035,4.182-11.453,12.236-13.106,17.655c3.496-2.284,12.275-6.907,16.108-8.301c-0.887,2.138-2.833,3.714-4.104,5.848
					c-1.758,2.953-5.881,6.296-6.066,9.818c3.07-2.853,6.868-5.354,10.683-7.353c-1.722,3.548-4.854,6.472-5.734,10.702
					c2.508-2.421,7.232-3.658,10.446-4.763l-0.387,0.374c-0.276,0.228-3.912,2.794-6.387,5.666c2.187-0.123,0.559-0.4,3.353,0.24
					l1.514,0.081c-0.754,0.393-1.579,0.828-2.45,1.29l0,0c-1.348,0.715-2.801,1.494-4.269,2.297
					c6.004,7.668,13.461,13.821,22.018,17.993c11.151,5.439,23.305,7.216,35.469,5.829c-0.146-0.715-0.305-1.426-0.491-2.131l0,0
					c0-0.003,0-0.007-0.003-0.013c-0.224-0.861-0.484-1.712-0.79-2.55l0,0c-0.016-0.046-0.029-0.091-0.049-0.136
					c4.162-7.729,1.975-20.972,12.629-26.284c7.17-3.655,7.986-5.669,16.226-4.097c4.451,0.848,14.172,4.208,18.847,3.204
					c4.243-2.352,6.378-3.431,10.043-6.163c4.584,0.832,6.069,0.367,7.755-2.063c-1.527,2.118,2.97-8.291,4.87-12.213L109.505,37.65
					z"/>
			</defs>
			<clipPath id="SVGID_13_">
				<use xlink:href="#SVGID_12_"  overflow="visible"/>
			</clipPath>
			<polygon clip-path="url(#SVGID_13_)" fill="#F1F2F2" points="36.825,-31.733 36.825,128.41 87.282,108.754 87.282,-52.276 			"/>
		</g>
		<g>
			<defs>
				<path id="SVGID_14_" d="M109.505,37.65c-1.784-5.348-1.277-14.474-2.19-15.79c-5.942-8.158-27.62-9.598-37.36-20.342
					c1.712-5.286-1.767-9.675-5.322-13.019c-5.341-3.892-12.765-2.174-18.496-0.617c-6.501-1.378-12.518-3.701-18.844-5.556
					C13.198-19.214-0.776-9.263-0.776-9.263c-10.056,6.388-25.843,19.634-33.396,27.366c1.849,0.266,3.818-1.127,5.904-1.381
					l14.451-3.749c-6.027,4.974-18.695,13.72-22.392,20.66c4.513-1.547,14-6.784,18.698-7.18
					c-4.13,3.642-12.733,10.543-15.449,14.952c0.322,0.159,0.094,0.543,0.143,0.812c3.541-1.949,12.151-7.05,16.044-7.372
					c-4.035,4.182-11.453,12.236-13.106,17.655c3.496-2.284,12.275-6.907,16.108-8.301c-0.887,2.138-2.833,3.714-4.104,5.848
					c-1.758,2.953-5.881,6.296-6.066,9.818c3.07-2.853,6.868-5.354,10.683-7.353c-1.722,3.548-4.854,6.472-5.734,10.702
					c2.508-2.421,7.232-3.658,10.446-4.763l-0.387,0.374c-0.276,0.228-3.912,2.794-6.387,5.666c2.187-0.123,0.559-0.4,3.353,0.24
					l1.514,0.081c-0.754,0.393-1.579,0.828-2.45,1.29l0,0c-1.348,0.715-2.801,1.494-4.269,2.297
					c6.004,7.668,13.461,13.821,22.018,17.993c11.151,5.439,23.305,7.216,35.469,5.829c-0.146-0.715-0.305-1.426-0.491-2.131l0,0
					c0-0.003,0-0.007-0.003-0.013c-0.224-0.861-0.484-1.712-0.79-2.55l0,0c-0.016-0.046-0.029-0.091-0.049-0.136
					c4.162-7.729,1.975-20.972,12.629-26.284c7.17-3.655,7.986-5.669,16.226-4.097c4.451,0.848,14.172,4.208,18.847,3.204
					c4.243-2.352,6.378-3.431,10.043-6.163c4.584,0.832,6.069,0.367,7.755-2.063c-1.527,2.118,2.97-8.291,4.87-12.213L109.505,37.65
					z"/>
			</defs>
			<clipPath id="SVGID_15_">
				<use xlink:href="#SVGID_14_"  overflow="visible"/>
			</clipPath>
			<polygon clip-path="url(#SVGID_15_)" fill="#FFFFFF" points="137.501,-31.733 137.501,128.41 87.044,108.754 87.044,-52.276 			
				"/>
		</g>
	</g>
</g>
</svg>
