<?xml version="1.0" encoding="UTF-8" standalone="no"?>
<svg width="204px" height="180px" viewBox="0 0 204 180" version="1.1" xmlns="http://www.w3.org/2000/svg" xmlns:xlink="http://www.w3.org/1999/xlink" xmlns:sketch="http://www.bohemiancoding.com/sketch/ns">
    <!-- Generator: Sketch 3.3.2 (12043) - http://www.bohemiancoding.com/sketch -->
    <title>Artboard 1</title>
    <desc>Created with Sketch.</desc>
    <defs></defs>
    <g id="Page-1" stroke="none" stroke-width="1" fill="none" fill-rule="evenodd" sketch:type="MSPage">
        <g id="Artboard-1" sketch:type="MSArtboardGroup" transform="translate(-42.000000, -17.000000)" fill="#FFFFFF">
            <path d="M194.509,17.842 L194.509,17.745 L194.386,17.793 L194.262,17.745 L194.262,17.842 L143.646,38.077 L93.027,17.842 L93.027,17.745 L92.906,17.793 L92.783,17.745 L92.783,17.842 L42.043,38.125 L42.043,197.011 L92.906,177.556 L143.522,196.92 L143.522,197.011 L143.646,196.966 L143.766,197.011 L143.766,196.92 L194.386,177.556 L245.249,197.011 L245.249,38.125 L194.509,17.842 Z M216.505,110.65 C214.721,105.302 215.228,96.176 214.315,94.86 C208.373,86.702 186.695,85.262 176.955,74.518 C178.667,69.232 175.188,64.843 171.633,61.499 C166.292,57.607 158.868,59.325 153.137,60.882 C146.636,59.504 140.619,57.181 134.293,55.326 C120.198,53.786 106.224,63.737 106.224,63.737 C96.168,70.125 80.381,83.371 72.828,91.103 C74.677,91.369 76.646,89.976 78.732,89.722 L93.183,85.973 C87.156,90.947 74.488,99.693 70.791,106.633 C75.304,105.086 84.791,99.849 89.489,99.453 C85.359,103.095 76.756,109.996 74.04,114.405 C74.362,114.564 74.134,114.948 74.183,115.217 C77.724,113.268 86.334,108.167 90.227,107.845 C86.192,112.027 78.774,120.081 77.121,125.5 C80.617,123.216 89.396,118.593 93.229,117.199 C92.342,119.337 90.396,120.913 89.125,123.047 C87.367,126 83.244,129.343 83.059,132.865 C86.129,130.012 89.927,127.511 93.742,125.512 C92.02,129.06 88.888,131.984 88.008,136.214 C90.516,133.793 95.24,132.556 98.454,131.451 L98.067,131.825 C97.791,132.053 94.155,134.619 91.68,137.491 C93.867,137.368 92.239,137.091 95.033,137.731 L96.547,137.812 C95.793,138.205 94.968,138.64 94.097,139.102 C92.749,139.817 91.296,140.596 89.828,141.399 C95.832,149.067 103.289,155.22 111.846,159.392 C122.997,164.831 135.151,166.608 147.315,165.221 C147.169,164.506 147.01,163.795 146.824,163.09 C146.824,163.087 146.824,163.083 146.821,163.077 C146.597,162.216 146.337,161.365 146.031,160.527 C146.015,160.481 146.002,160.436 145.982,160.391 C150.144,152.662 147.957,139.419 158.611,134.107 C165.781,130.452 166.597,128.438 174.837,130.01 C179.288,130.858 189.009,134.218 193.684,133.214 C197.927,130.862 200.062,129.783 203.727,127.051 C208.311,127.883 209.796,127.418 211.482,124.988 C209.955,127.106 214.452,116.697 216.352,112.775 L216.505,110.65 Z" id="Mask" sketch:type="MSShapeGroup"></path>
        </g>
    </g>
</svg>