<svg xmlns="http://www.w3.org/2000/svg" xmlns:xlink="http://www.w3.org/1999/xlink" width="216" height="216" viewBox="-72 -77.4 216 216"><linearGradient id="a" gradientUnits="userSpaceOnUse" x1="-3023.354" y1="64.189" x2="-3023.354" y2="243.456" gradientTransform="matrix(1 0 0 -1 3060 188.2)"><stop offset="0" stop-color="#1C75BC"/><stop offset="1" stop-color="#27AAE1"/></linearGradient><path fill="url(#a)" d="M87.51-55.158v-.097l-.124.048-.124-.048v.097L36.646-34.923l-50.62-20.235v-.097l-.12.048-.123-.048v.097l-50.74 20.283V124.01l50.863-19.454 50.616 19.364v.09l.124-.044.12.045v-.09l50.62-19.364 50.863 19.455V-34.874"/><linearGradient id="b" gradientUnits="userSpaceOnUse" x1="-3099.465" y1="64.189" x2="-3099.465" y2="243.456" gradientTransform="matrix(1 0 0 -1 3060 188.2)"><stop offset="0" stop-color="#014D92"/><stop offset="1" stop-color="#0B92C8"/></linearGradient><path fill="url(#b)" d="M-64.957-34.875V124.01l50.984-19.5V-55.254"/><linearGradient id="c" gradientUnits="userSpaceOnUse" x1="-3048.725" y1="64.189" x2="-3048.725" y2="243.456" gradientTransform="matrix(1 0 0 -1 3060 188.2)"><stop offset="0" stop-color="#00549F"/><stop offset="1" stop-color="#00A0DB"/></linearGradient><path fill="url(#c)" d="M36.766-34.875V124.01l-50.983-19.5V-55.254"/><linearGradient id="d" gradientUnits="userSpaceOnUse" x1="-2997.984" y1="64.189" x2="-2997.984" y2="243.456" gradientTransform="matrix(1 0 0 -1 3060 188.2)"><stop offset="0" stop-color="#014D92"/><stop offset="1" stop-color="#0B92C8"/></linearGradient><path fill="url(#d)" d="M36.526-34.875V124.01l50.98-19.5V-55.254"/><linearGradient id="e" gradientUnits="userSpaceOnUse" x1="-2947.245" y1="64.189" x2="-2947.245" y2="243.456" gradientTransform="matrix(1 0 0 -1 3060 188.2)"><stop offset="0" stop-color="#00549F"/><stop offset="1" stop-color="#00A0DB"/></linearGradient><path fill="url(#e)" d="M138.245-34.875V124.01l-50.98-19.5V-55.254"/><g><defs><path id="f" d="M109.505 37.65c-1.784-5.348-1.277-14.474-2.19-15.79-5.942-8.158-27.62-9.598-37.36-20.342 1.712-5.286-1.767-9.675-5.322-13.02-5.34-3.89-12.765-2.173-18.496-.616-6.5-1.378-12.518-3.7-18.844-5.556-14.095-1.54-28.07 8.41-28.07 8.41-10.055 6.39-25.842 19.635-33.395 27.367 1.85.266 3.818-1.127 5.904-1.38l14.45-3.75c-6.026 4.974-18.694 13.72-22.39 20.66 4.512-1.547 14-6.784 18.697-7.18-4.13 3.642-12.734 10.543-15.45 14.952.322.16.094.543.143.812 3.54-1.95 12.15-7.05 16.044-7.372C-20.808 39.027-28.226 47.08-29.88 52.5c3.497-2.284 12.276-6.907 16.11-8.3-.888 2.137-2.834 3.713-4.105 5.847-1.758 2.953-5.88 6.296-6.066 9.818 3.07-2.853 6.867-5.354 10.682-7.353-1.722 3.548-4.854 6.472-5.734 10.702 2.508-2.42 7.232-3.658 10.446-4.763l-.387.375c-.276.228-3.912 2.794-6.387 5.666 2.187-.122.56-.4 3.353.24l1.514.082c-.754.393-1.58.828-2.45 1.29-1.348.715-2.8 1.494-4.27 2.297 6.005 7.667 13.462 13.82 22.02 17.992 11.15 5.44 23.304 7.216 35.468 5.83-.146-.716-.305-1.427-.49-2.132 0-.003 0-.007-.004-.013-.223-.86-.483-1.712-.79-2.55-.015-.046-.028-.09-.048-.136 4.162-7.728 1.975-20.97 12.63-26.283 7.17-3.655 7.985-5.67 16.225-4.097 4.45.848 14.172 4.208 18.847 3.204 4.243-2.352 6.378-3.43 10.043-6.163 4.584.833 6.07.368 7.755-2.062-1.527 2.118 2.97-8.29 4.87-12.213l.153-2.125z"/></defs><clipPath id="g"><use xlink:href="#f" overflow="visible"/></clipPath><ellipse clip-path="url(#g)" fill="#FFF" cx="36.506" cy="38.354" rx="94.354" ry="63.995"/><defs><path id="h" d="M109.505 37.65c-1.784-5.348-1.277-14.474-2.19-15.79-5.942-8.158-27.62-9.598-37.36-20.342 1.712-5.286-1.767-9.675-5.322-13.02-5.34-3.89-12.765-2.173-18.496-.616-6.5-1.378-12.518-3.7-18.844-5.556-14.095-1.54-28.07 8.41-28.07 8.41-10.055 6.39-25.842 19.635-33.395 27.367 1.85.266 3.818-1.127 5.904-1.38l14.45-3.75c-6.026 4.974-18.694 13.72-22.39 20.66 4.512-1.547 14-6.784 18.697-7.18-4.13 3.642-12.734 10.543-15.45 14.952.322.16.094.543.143.812 3.54-1.95 12.15-7.05 16.044-7.372C-20.808 39.027-28.226 47.08-29.88 52.5c3.497-2.284 12.276-6.907 16.11-8.3-.888 2.137-2.834 3.713-4.105 5.847-1.758 2.953-5.88 6.296-6.066 9.818 3.07-2.853 6.867-5.354 10.682-7.353-1.722 3.548-4.854 6.472-5.734 10.702 2.508-2.42 7.232-3.658 10.446-4.763l-.387.375c-.276.228-3.912 2.794-6.387 5.666 2.187-.122.56-.4 3.353.24l1.514.082c-.754.393-1.58.828-2.45 1.29-1.348.715-2.8 1.494-4.27 2.297 6.005 7.667 13.462 13.82 22.02 17.992 11.15 5.44 23.304 7.216 35.468 5.83-.146-.716-.305-1.427-.49-2.132 0-.003 0-.007-.004-.013-.223-.86-.483-1.712-.79-2.55-.015-.046-.028-.09-.048-.136 4.162-7.728 1.975-20.97 12.63-26.283 7.17-3.655 7.985-5.67 16.225-4.097 4.45.848 14.172 4.208 18.847 3.204 4.243-2.352 6.378-3.43 10.043-6.163 4.584.833 6.07.368 7.755-2.062-1.527 2.118 2.97-8.29 4.87-12.213l.153-2.125z"/></defs><clipPath id="i"><use xlink:href="#h" overflow="visible"/></clipPath><path clip-path="url(#i)" fill="#F1F2F2" d="M-63.618-31.733V128.41l50.46-19.656v-161.03"/><g><defs><path id="j" d="M109.505 37.65c-1.784-5.348-1.277-14.474-2.19-15.79-5.942-8.158-27.62-9.598-37.36-20.342 1.712-5.286-1.767-9.675-5.322-13.02-5.34-3.89-12.765-2.173-18.496-.616-6.5-1.378-12.518-3.7-18.844-5.556-14.095-1.54-28.07 8.41-28.07 8.41-10.055 6.39-25.842 19.635-33.395 27.367 1.85.266 3.818-1.127 5.904-1.38l14.45-3.75c-6.026 4.974-18.694 13.72-22.39 20.66 4.512-1.547 14-6.784 18.697-7.18-4.13 3.642-12.734 10.543-15.45 14.952.322.16.094.543.143.812 3.54-1.95 12.15-7.05 16.044-7.372C-20.808 39.027-28.226 47.08-29.88 52.5c3.497-2.284 12.276-6.907 16.11-8.3-.888 2.137-2.834 3.713-4.105 5.847-1.758 2.953-5.88 6.296-6.066 9.818 3.07-2.853 6.867-5.354 10.682-7.353-1.722 3.548-4.854 6.472-5.734 10.702 2.508-2.42 7.232-3.658 10.446-4.763l-.387.375c-.276.228-3.912 2.794-6.387 5.666 2.187-.122.56-.4 3.353.24l1.514.082c-.754.393-1.58.828-2.45 1.29-1.348.715-2.8 1.494-4.27 2.297 6.005 7.667 13.462 13.82 22.02 17.992 11.15 5.44 23.304 7.216 35.468 5.83-.146-.716-.305-1.427-.49-2.132 0-.003 0-.007-.004-.013-.223-.86-.483-1.712-.79-2.55-.015-.046-.028-.09-.048-.136 4.162-7.728 1.975-20.97 12.63-26.283 7.17-3.655 7.985-5.67 16.225-4.097 4.45.848 14.172 4.208 18.847 3.204 4.243-2.352 6.378-3.43 10.043-6.163 4.584.833 6.07.368 7.755-2.062-1.527 2.118 2.97-8.29 4.87-12.213l.153-2.125z"/></defs><clipPath id="k"><use xlink:href="#j" overflow="visible"/></clipPath><path clip-path="url(#k)" fill="#FFF" d="M37.062-31.733V128.41l-50.46-19.656v-161.03"/></g><g><defs><path id="l" d="M109.505 37.65c-1.784-5.348-1.277-14.474-2.19-15.79-5.942-8.158-27.62-9.598-37.36-20.342 1.712-5.286-1.767-9.675-5.322-13.02-5.34-3.89-12.765-2.173-18.496-.616-6.5-1.378-12.518-3.7-18.844-5.556-14.095-1.54-28.07 8.41-28.07 8.41-10.055 6.39-25.842 19.635-33.395 27.367 1.85.266 3.818-1.127 5.904-1.38l14.45-3.75c-6.026 4.974-18.694 13.72-22.39 20.66 4.512-1.547 14-6.784 18.697-7.18-4.13 3.642-12.734 10.543-15.45 14.952.322.16.094.543.143.812 3.54-1.95 12.15-7.05 16.044-7.372C-20.808 39.027-28.226 47.08-29.88 52.5c3.497-2.284 12.276-6.907 16.11-8.3-.888 2.137-2.834 3.713-4.105 5.847-1.758 2.953-5.88 6.296-6.066 9.818 3.07-2.853 6.867-5.354 10.682-7.353-1.722 3.548-4.854 6.472-5.734 10.702 2.508-2.42 7.232-3.658 10.446-4.763l-.387.375c-.276.228-3.912 2.794-6.387 5.666 2.187-.122.56-.4 3.353.24l1.514.082c-.754.393-1.58.828-2.45 1.29-1.348.715-2.8 1.494-4.27 2.297 6.005 7.667 13.462 13.82 22.02 17.992 11.15 5.44 23.304 7.216 35.468 5.83-.146-.716-.305-1.427-.49-2.132 0-.003 0-.007-.004-.013-.223-.86-.483-1.712-.79-2.55-.015-.046-.028-.09-.048-.136 4.162-7.728 1.975-20.97 12.63-26.283 7.17-3.655 7.985-5.67 16.225-4.097 4.45.848 14.172 4.208 18.847 3.204 4.243-2.352 6.378-3.43 10.043-6.163 4.584.833 6.07.368 7.755-2.062-1.527 2.118 2.97-8.29 4.87-12.213l.153-2.125z"/></defs><clipPath id="m"><use xlink:href="#l" overflow="visible"/></clipPath><path clip-path="url(#m)" fill="#F1F2F2" d="M36.825-31.733V128.41l50.457-19.656v-161.03"/></g><g><defs><path id="n" d="M109.505 37.65c-1.784-5.348-1.277-14.474-2.19-15.79-5.942-8.158-27.62-9.598-37.36-20.342 1.712-5.286-1.767-9.675-5.322-13.02-5.34-3.89-12.765-2.173-18.496-.616-6.5-1.378-12.518-3.7-18.844-5.556-14.095-1.54-28.07 8.41-28.07 8.41-10.055 6.39-25.842 19.635-33.395 27.367 1.85.266 3.818-1.127 5.904-1.38l14.45-3.75c-6.026 4.974-18.694 13.72-22.39 20.66 4.512-1.547 14-6.784 18.697-7.18-4.13 3.642-12.734 10.543-15.45 14.952.322.16.094.543.143.812 3.54-1.95 12.15-7.05 16.044-7.372C-20.808 39.027-28.226 47.08-29.88 52.5c3.497-2.284 12.276-6.907 16.11-8.3-.888 2.137-2.834 3.713-4.105 5.847-1.758 2.953-5.88 6.296-6.066 9.818 3.07-2.853 6.867-5.354 10.682-7.353-1.722 3.548-4.854 6.472-5.734 10.702 2.508-2.42 7.232-3.658 10.446-4.763l-.387.375c-.276.228-3.912 2.794-6.387 5.666 2.187-.122.56-.4 3.353.24l1.514.082c-.754.393-1.58.828-2.45 1.29-1.348.715-2.8 1.494-4.27 2.297 6.005 7.667 13.462 13.82 22.02 17.992 11.15 5.44 23.304 7.216 35.468 5.83-.146-.716-.305-1.427-.49-2.132 0-.003 0-.007-.004-.013-.223-.86-.483-1.712-.79-2.55-.015-.046-.028-.09-.048-.136 4.162-7.728 1.975-20.97 12.63-26.283 7.17-3.655 7.985-5.67 16.225-4.097 4.45.848 14.172 4.208 18.847 3.204 4.243-2.352 6.378-3.43 10.043-6.163 4.584.833 6.07.368 7.755-2.062-1.527 2.118 2.97-8.29 4.87-12.213l.153-2.125z"/></defs><clipPath id="o"><use xlink:href="#n" overflow="visible"/></clipPath><path clip-path="url(#o)" fill="#FFF" d="M137.5-31.733V128.41l-50.456-19.656v-161.03"/></g></g></svg>