<svg width="204" height="180" viewBox="0 0 204 180" xmlns="http://www.w3.org/2000/svg"><title>Artboard 1</title><path d="M152.51.842V.745l-.124.048-.124-.048v.097l-50.616 20.235L51.026.842V.745l-.12.048-.123-.048v.097L.043 21.125V180.01l50.863-19.454 50.616 19.364v.09l.124-.044.12.045v-.09l50.62-19.364 50.863 19.455V21.126L152.51.842zm21.995 92.808c-1.784-5.348-1.277-14.474-2.19-15.79-5.942-8.158-27.62-9.598-37.36-20.342 1.712-5.286-1.767-9.675-5.322-13.02-5.34-3.89-12.765-2.173-18.496-.616-6.5-1.378-12.518-3.7-18.844-5.556-14.095-1.54-28.07 8.41-28.07 8.41-10.055 6.39-25.842 19.635-33.395 27.367 1.85.266 3.818-1.127 5.904-1.38l14.45-3.75c-6.026 4.974-18.694 13.72-22.39 20.66 4.512-1.547 14-6.784 18.697-7.18-4.13 3.642-12.734 10.543-15.45 14.952.322.16.094.543.143.812 3.54-1.95 12.15-7.05 16.044-7.372-4.035 4.182-11.453 12.236-13.106 17.655 3.497-2.284 12.276-6.907 16.11-8.3-.888 2.137-2.834 3.713-4.105 5.847-1.758 2.953-5.88 6.296-6.066 9.818 3.07-2.853 6.867-5.354 10.682-7.353-1.722 3.548-4.854 6.472-5.734 10.702 2.508-2.42 7.232-3.658 10.446-4.763l-.387.375c-.276.228-3.912 2.794-6.387 5.666 2.187-.122.56-.4 3.353.24l1.514.082c-.754.393-1.58.828-2.45 1.29-1.348.715-2.8 1.494-4.27 2.297 6.005 7.667 13.462 13.82 22.02 17.992 11.15 5.44 23.304 7.216 35.468 5.83-.146-.716-.305-1.427-.49-2.132 0-.003 0-.007-.004-.013-.223-.86-.483-1.712-.79-2.55-.015-.046-.028-.09-.048-.136 4.162-7.728 1.975-20.97 12.63-26.283 7.17-3.655 7.985-5.67 16.225-4.097 4.45.848 14.172 4.208 18.847 3.204 4.243-2.352 6.378-3.43 10.043-6.163 4.584.833 6.07.368 7.755-2.062-1.527 2.118 2.97-8.29 4.87-12.213l.153-2.125z" fill="#FFF" fill-rule="evenodd"/></svg>